<?xml version="1.0"?><svg width="2481" height="2073" xmlns="http://www.w3.org/2000/svg">
 <title>Google Maps Icon - Blank</title>
 <g>
  <title>Layer 1</title>
  <path fill-rule="evenodd" clip-rule="evenodd" fill="#ffffff" stroke="#000000" stroke-width="37" stroke-miterlimit="10" d="m702.026917,1819.715942c-38.765869,-192.436157 -107.115967,-352.576904 -189.902954,-500.998535c-61.406982,-110.093628 -132.543945,-211.712036 -198.364014,-318.471436c-21.971985,-35.639465 -40.93396,-73.290222 -62.047012,-110.277649c-42.215942,-73.95752 -76.44397,-159.70697 -74.268982,-270.93811c2.125,-108.678802 33.208008,-195.857086 78.029968,-267.135925c73.71907,-117.235718 197.201065,-213.356186 362.884048,-238.616455c135.466064,-20.653145 262.475098,14.239998 352.542969,67.496887c73.600159,43.520874 130.59613,101.654877 173.920105,170.16803c45.219971,71.509399 76.359009,155.990753 78.970947,266.185364c1.337036,56.456421 -7.804932,108.738464 -20.68396,152.105591c-13.033936,43.896118 -33.995972,80.589172 -52.645996,119.783081c-36.406006,76.507874 -82.04895,146.608582 -127.855042,216.750793c-136.437012,208.924072 -264.496094,421.992065 -320.580078,713.948364z" id="svg_2"/>
 </g>
</svg>